<?xml version="1.0" standalone="no"?>
<!DOCTYPE svg PUBLIC "-//W3C//DTD SVG 20010904//EN"
 "http://www.w3.org/TR/2001/REC-SVG-20010904/DTD/svg10.dtd">
<svg version="1.0" xmlns="http://www.w3.org/2000/svg"
 width="400.000000pt" height="400.000000pt" viewBox="0 0 400.000000 400.000000"
 preserveAspectRatio="xMidYMid meet">
<metadata>
Created by potrace 1.14, written by Peter Selinger 2001-2017
</metadata>
<g transform="translate(0.000000,400.000000) scale(0.100000,-0.100000)"
fill="#000000" stroke="none">
<path d="M2007 3434 c-1 -1 -36 -4 -77 -7 -70 -6 -87 -8 -150 -23 -14 -3 -32
-6 -40 -7 -8 -1 -18 -5 -21 -10 -3 -4 -15 -9 -27 -12 -11 -2 -41 -15 -65 -29
-25 -13 -48 -22 -51 -19 -3 4 -6 2 -6 -4 0 -5 -16 -18 -35 -29 -19 -10 -35
-24 -35 -31 0 -7 -6 -13 -12 -13 -13 -1 -88 -65 -88 -75 0 -3 -20 -31 -45 -63
-25 -31 -45 -63 -45 -69 0 -7 -4 -13 -9 -13 -8 0 -24 -37 -22 -52 1 -5 -4 -8
-9 -8 -6 0 -10 -6 -10 -12 0 -7 -6 -24 -13 -39 -18 -33 -63 -164 -72 -209 -4
-19 -10 -39 -14 -45 -4 -5 -13 -39 -20 -75 -6 -36 -15 -76 -18 -90 -12 -46
-12 -183 0 -196 29 -33 36 -42 31 -48 -2 -3 -1 -4 3 -1 16 12 41 -27 37 -58
-8 -60 -14 -74 -28 -74 -8 0 -13 3 -11 7 6 9 -35 29 -57 28 -10 -1 -18 -5 -18
-10 0 -4 -8 -8 -17 -8 -9 0 -13 -3 -10 -7 4 -3 2 -12 -4 -20 -6 -7 -8 -13 -4
-13 4 0 3 -6 -2 -12 -8 -11 -11 -203 -3 -203 1 0 3 -13 5 -30 1 -16 4 -47 6
-67 2 -21 6 -38 10 -38 4 0 5 -9 2 -20 -3 -12 0 -20 6 -20 7 0 9 -4 6 -10 -3
-5 4 -25 17 -43 21 -31 27 -33 77 -33 57 0 72 -12 79 -64 2 -14 7 -26 13 -28
5 -2 9 -14 9 -27 0 -12 7 -35 14 -51 8 -15 12 -32 9 -37 -3 -6 -1 -7 5 -3 7 4
12 1 12 -6 0 -46 111 -196 246 -331 81 -81 167 -147 192 -147 7 0 12 -4 12 -8
0 -5 6 -9 14 -9 8 0 29 -7 48 -16 43 -20 77 -27 160 -32 37 -2 72 -6 78 -10 5
-3 10 -2 10 2 0 5 10 9 23 10 45 1 112 15 115 24 2 5 7 7 12 4 14 -9 172 83
230 135 14 12 41 34 60 48 52 40 170 164 170 179 0 7 4 13 9 13 12 0 92 156
84 164 -3 3 -1 6 5 6 7 0 12 7 12 16 0 31 27 46 74 39 56 -9 77 3 104 57 22
44 71 200 72 229 0 8 18 23 41 33 31 14 40 23 36 37 -3 10 -2 21 3 24 12 8
-10 81 -31 104 -10 11 -19 24 -19 28 0 5 -8 16 -17 25 -20 19 -31 32 -56 68
-16 24 -16 25 15 57 39 40 43 69 33 223 -4 65 -20 191 -30 234 -3 12 -7 32
-10 46 -2 14 -9 43 -15 65 -6 22 -13 51 -16 65 -3 13 -10 30 -16 37 -6 8 -8
16 -5 20 4 3 2 12 -4 20 -6 7 -8 13 -4 13 5 0 0 9 -10 20 -10 11 -15 20 -12
20 9 0 -67 143 -90 170 -10 11 -17 23 -16 25 3 6 -96 104 -136 135 -18 14 -38
30 -45 35 -6 6 -25 17 -41 26 -17 8 -39 20 -50 26 -27 15 -58 27 -67 25 -5 -1
-8 3 -8 10 0 6 -3 9 -6 5 -3 -3 -23 1 -44 8 -21 7 -51 16 -67 19 -15 3 -39 8
-53 11 -14 4 -63 9 -110 11 -47 3 -106 6 -133 8 -26 1 -48 2 -50 0z"/>
</g>
</svg>
