<svg width="382" height="205" viewBox="0 0 382 205" fill="none" xmlns="http://www.w3.org/2000/svg">
<g opacity="0.1">
<path d="M217.942 89.5269C210.645 83.943 209.037 73.3391 214.35 65.8425L228.133 46.394C233.446 38.8973 243.669 37.3467 250.966 42.9306C258.263 48.5145 259.871 59.1183 254.558 66.615L240.775 86.0635C235.462 93.5601 225.239 95.1108 217.942 89.5269Z" fill="#5D3BEE"/>
<path d="M123.056 226.341C115.759 220.757 114.151 210.153 119.464 202.656L187.507 106.646C192.82 99.1497 203.043 97.5991 210.34 103.183C217.637 108.767 219.245 119.371 213.932 126.867L145.889 222.877C140.576 230.374 130.353 231.925 123.056 226.341Z" fill="#5D3BEE"/>
<path d="M102.704 351.573C95.4073 345.989 93.7988 335.385 99.1118 327.889L299.45 45.2095C304.763 37.7129 314.986 36.1623 322.283 41.7461C329.58 47.33 331.189 57.9339 325.876 65.4306L125.537 348.11C120.224 355.606 110.002 357.157 102.704 351.573Z" fill="#5D3BEE"/>
<path d="M246.399 239.851C239.102 234.267 237.493 223.663 242.806 216.166L305.441 127.789C310.754 120.292 320.976 118.741 328.274 124.325C335.571 129.909 337.179 140.513 331.866 148.01L269.232 236.387C263.919 243.884 253.696 245.435 246.399 239.851Z" fill="#5D3BEE"/>
</g>
</svg>
